<?xml version="1.0" standalone="no"?>
<!DOCTYPE svg PUBLIC "-//W3C//DTD SVG 20010904//EN"
 "http://www.w3.org/TR/2001/REC-SVG-20010904/DTD/svg10.dtd">
<svg version="1.0" xmlns="http://www.w3.org/2000/svg"
 width="1013.000000pt" height="316.000000pt" viewBox="0 0 1013.000000 316.000000"
 preserveAspectRatio="xMidYMid meet">

<g transform="translate(0.000000,316.000000) scale(0.100000,-0.100000)"
fill="#000000" stroke="none">
<path d="M6070 2701 c-17 -32 -13 -1646 4 -1742 33 -185 139 -309 307 -360 92
-28 262 -25 324 6 l40 20 3 184 2 183 -22 -6 c-91 -28 -171 -13 -217 39 l-31
36 0 810 c0 539 -3 817 -10 830 -10 18 -23 19 -200 19 -177 0 -190 -1 -200
-19z"/>
<path d="M5085 2250 c-113 -18 -207 -63 -288 -139 -27 -25 -56 -59 -65 -76
-17 -30 -17 -30 -22 70 l-5 100 -189 3 c-130 2 -193 -1 -202 -9 -21 -17 -21
-1561 0 -1578 9 -8 72 -11 202 -9 l189 3 5 500 c4 323 9 511 17 531 32 91 92
163 167 202 67 34 199 43 273 18 89 -30 163 -108 197 -211 15 -42 17 -109 16
-535 0 -401 3 -490 14 -499 9 -8 72 -11 202 -9 l189 3 3 530 c2 453 0 542 -14
610 -38 192 -161 360 -318 434 -45 22 -101 43 -126 49 -70 16 -179 22 -245 12z"/>
<path d="M3199 2236 c-289 -61 -509 -273 -591 -571 -18 -68 -21 -106 -21 -250
0 -201 15 -272 90 -425 40 -80 61 -109 138 -185 102 -102 169 -145 287 -186
114 -39 214 -53 328 -46 231 15 428 119 568 299 48 63 126 214 117 228 -4 6
-79 10 -194 10 l-188 0 -40 -48 c-101 -120 -294 -163 -457 -102 -65 25 -155
102 -193 167 -25 43 -63 151 -63 179 0 12 89 14 573 16 l572 3 3 107 c10 374
-202 681 -543 788 -90 28 -288 36 -386 16z m319 -358 c78 -29 171 -122 199
-198 l21 -55 -184 -3 c-101 -1 -267 -1 -369 0 l-185 3 29 62 c71 150 206 230
369 217 35 -3 89 -14 120 -26z"/>
<path d="M995 2190 c-7 -11 64 -204 376 -1035 110 -291 205 -533 212 -537 21
-14 421 -10 439 5 9 6 65 145 126 307 61 162 190 502 287 755 98 253 180 472
182 488 l5 27 -213 -2 -213 -3 -54 -155 c-29 -85 -75 -218 -102 -295 -27 -77
-77 -221 -111 -320 -34 -99 -75 -220 -92 -268 -16 -48 -32 -85 -36 -82 -3 4
-90 257 -192 563 l-186 557 -211 3 c-134 1 -213 -1 -217 -8z"/>
</g>
</svg>
